<?xml version="1.0" encoding="UTF-8"?> <svg xmlns="http://www.w3.org/2000/svg" width="70" height="64" viewBox="0 0 70 64" fill="none"><rect width="46.8016" height="46.8016" rx="16" transform="matrix(0.737154 0.675725 -0.737154 0.675725 35 0.0552979)" fill="#F4F9F8"></rect><path d="M39.8915 38.4429C38.9812 38.4429 38.1702 38.0286 37.4525 37.1943C36.7347 36.3657 36.3788 35.2683 36.3788 33.9022C36.3788 32.7432 37.0323 30.9684 38.3335 28.5833C39.6406 26.1926 40.6092 25 41.2452 25C41.6012 25 41.7821 25.1792 41.7821 25.5319C41.7821 25.6271 41.4086 26.3997 40.6676 27.8554C39.9207 29.3111 39.5531 30.4533 39.5531 31.2707C39.5531 31.9034 39.9732 32.4241 40.8193 32.8272C41.6595 33.2303 42.2255 33.6502 42.5056 34.087C42.7857 34.5237 42.9257 34.9996 42.9257 35.5035C42.9257 36.4161 42.6456 37.1383 42.0855 37.659C41.5078 38.1797 40.7843 38.4429 39.8915 38.4429Z" fill="#27BAA0"></path><path d="M31.5127 38.4429C30.6024 38.4429 29.7855 38.0286 29.0737 37.1943C28.3559 36.3657 28 35.2683 28 33.9022C28 32.7432 28.6535 30.9684 29.9548 28.5833C31.256 26.1926 32.2304 25 32.8606 25C33.2166 25 33.3975 25.1792 33.3975 25.5319C33.3975 25.6271 33.024 26.3997 32.283 27.8554C31.5361 29.3111 31.1685 30.4533 31.1685 31.2707C31.1685 31.9034 31.5886 32.4241 32.4347 32.8272C33.2749 33.2303 33.8409 33.6502 34.121 34.087C34.4011 34.5237 34.5411 34.9996 34.5411 35.5035C34.5411 36.4161 34.2611 37.1383 33.7009 37.659C33.1407 38.1797 32.4055 38.4429 31.5127 38.4429Z" fill="#27BAA0"></path></svg> 