<svg width="77" height="63" viewBox="0 0 77 63" fill="none" xmlns="http://www.w3.org/2000/svg">
<path d="M66.1769 3.05176e-05H10.449C4.52792 3.05176e-05 0 4.52795 0 10.449V52.2449C0 58.166 4.52792 62.6939 10.449 62.6939H66.1769C72.098 62.6939 76.6259 58.166 76.6259 52.2449V10.449C76.6259 4.52795 72.098 3.05176e-05 66.1769 3.05176e-05ZM10.4491 6.96599H66.177C67.5702 6.96599 68.6151 7.66256 69.3117 9.05579L38.3131 30.6503L7.31445 9.05579C8.01102 7.66256 9.05584 6.96599 10.4491 6.96599ZM66.1769 55.7279H10.449C8.35918 55.7279 6.96596 54.3347 6.96596 52.2449V17.0667L36.2231 37.6164C36.9197 37.9647 37.6163 38.3129 38.3129 38.3129C39.0095 38.3129 39.7061 37.9646 40.4027 37.6164L69.6598 17.0667V52.2449C69.6598 54.3347 68.2667 55.7279 66.1769 55.7279Z" fill="#27BAA0"/>
</svg>
