<svg width="77" height="77" viewBox="0 0 77 77" fill="none" xmlns="http://www.w3.org/2000/svg">
<path d="M67.2217 44.9306C64.087 44.5822 60.9523 43.8857 58.166 42.8408C54.3347 41.4475 50.1551 42.4924 47.0204 45.2789L44.5823 47.717C38.3129 43.5374 32.7401 38.3129 28.5605 31.6952L30.9986 29.2571C33.785 26.4707 34.8299 21.9428 33.4367 18.1115C32.3918 15.3252 31.6953 12.1905 31.3469 9.05579C30.6504 3.83131 26.1224 3.64401e-05 20.898 3.64401e-05H10.449C10.1007 3.64401e-05 9.75241 3.64401e-05 9.40408 3.64401e-05C6.61771 0.348363 4.17959 1.74151 2.43812 3.83131C0.696653 5.9211 0 8.70747 0 11.4939C1.0449 22.6395 5.22449 33.7851 11.1455 43.1892C16.7184 51.8967 24.3809 59.5592 33.0884 65.132C42.4925 71.4014 53.638 75.2327 64.7837 76.2776C65.132 76.2776 65.4802 76.2776 65.8286 76.2776C68.6149 76.2776 71.4014 75.2327 73.1429 73.1429C74.8843 71.0531 76.2775 68.615 76.2775 65.8286V55.3796C76.2775 50.1551 72.4463 45.6272 67.2218 44.9306L67.2217 44.9306ZM69.3115 55.3795V65.8285C69.3115 66.8734 68.9632 67.57 68.2666 68.2666C67.57 68.9633 66.8734 69.3115 65.4802 69.3115C55.3796 68.2666 45.6272 64.7836 36.9197 59.2109C28.9088 54.3347 22.2911 47.3687 17.0666 39.3578C11.4938 30.6503 8.01086 20.898 6.96596 10.7973C6.96596 9.75237 7.31429 9.0558 7.66253 8.35914C8.3591 7.66257 9.404 6.96592 10.4489 6.96592H20.8979C22.6393 6.96592 24.0326 8.35914 24.3809 10.1006C24.7292 13.5836 25.7741 17.4149 27.1673 20.5496C27.5156 21.9428 27.1673 23.336 26.4707 24.3809L21.9428 28.5604C20.8979 29.6053 20.5496 31.3468 21.2462 32.74C26.4707 42.1441 34.1333 49.8067 43.5374 55.0312C44.9306 55.7278 46.6721 55.7278 47.717 54.3346L52.2449 49.8067C53.2898 48.7618 54.683 48.4135 56.0762 49.1102C59.5592 50.5034 63.0421 51.2 66.5251 51.8965C67.9184 52.2449 69.3115 53.638 69.3115 55.3795V55.3795Z" fill="white"/>
</svg>
