<?xml version="1.0" encoding="UTF-8"?> <svg xmlns="http://www.w3.org/2000/svg" width="40" height="40" viewBox="0 0 40 40" fill="none"><path d="M3 11C3 10.4477 3.44772 9.99996 4 9.99996H10.6667C10.883 9.99996 11.0936 9.92978 11.2667 9.79996L14.7333 7.19996C14.9064 7.07014 15.117 6.99996 15.3333 6.99996H24.8528C25.0777 6.99996 25.296 7.07574 25.4725 7.21508L28.7275 9.78484C28.904 9.92418 29.1223 9.99996 29.3472 9.99996H36C36.5523 9.99996 37 10.4477 37 11V31C37 31.5523 36.5523 32 36 32H4C3.44772 32 3 31.5523 3 31V11Z" stroke="#27BAA0" stroke-width="2"></path><circle cx="20" cy="20" r="5" stroke="#27BAA0" stroke-width="2"></circle></svg> 