<svg width="63" height="77" viewBox="0 0 63 77" fill="none" xmlns="http://www.w3.org/2000/svg">
<path d="M62.3455 22.9879C61.9972 22.6395 61.9972 22.2913 61.649 21.943L40.751 1.045C40.4027 0.696672 40.0545 0.34843 39.7061 0.34843C39.3578 0.000103555 38.6612 0.000101219 38.3129 0.000101219H10.449C4.52792 0.000101219 0 4.52802 0 10.4491V66.177C0 72.0981 4.52792 76.626 10.449 76.626H52.2449C58.166 76.626 62.6939 72.0981 62.6939 66.177V24.3811C62.6939 24.0328 62.6939 23.3362 62.3455 22.9879ZM41.7959 11.8422L50.8517 20.898H41.7959V11.8422ZM52.2449 69.6599H10.449C8.35918 69.6599 6.96596 68.2667 6.96596 66.1769V10.449C6.96596 8.3592 8.35918 6.96598 10.449 6.96598H34.83V24.3809C34.83 26.4707 36.2232 27.8639 38.313 27.8639H55.7279V66.1768C55.7279 68.2666 54.3347 69.6599 52.2449 69.6599V69.6599ZM41.7959 45.279H34.83V38.313C34.83 36.2232 33.4367 34.83 31.3469 34.83C29.2571 34.83 27.8639 36.2232 27.8639 38.313V45.279H20.898C18.8082 45.279 17.4149 46.6722 17.4149 48.762C17.4149 50.8518 18.8082 52.245 20.898 52.245H27.8639V59.211C27.8639 61.3008 29.2571 62.694 31.3469 62.694C33.4367 62.694 34.83 61.3008 34.83 59.211V52.245H41.7959C43.8857 52.245 45.2789 50.8518 45.2789 48.762C45.2789 46.6722 43.8857 45.279 41.7959 45.279V45.279Z" fill="#283530"/>
</svg>
