<svg width="320" height="59" viewBox="0 0 320 59" fill="none" xmlns="http://www.w3.org/2000/svg">
<path d="M304.997 11L311.5 4.20108L318.002 11L320 8.90688L311.5 0L303 8.90688L304.997 11Z" fill="white"/>
<path d="M14.6025 52H22.9845L32.5545 17.614L41.8605 52H50.6385L62.4525 4.81H54.2685L45.8205 39.658L36.4485 4.81H29.1885L20.0145 39.46L11.8305 4.81H2.85452L14.6025 52ZM83.7808 52.66C92.6248 52.66 98.4988 48.7 99.6208 41.44H91.8988C91.3048 44.806 88.7968 46.72 83.9788 46.72C78.0388 46.72 74.7388 43.024 74.4748 36.49H99.7528V34.18C99.7528 21.838 92.0308 16.756 83.4508 16.756C73.6168 16.756 66.2908 23.884 66.2908 34.576V35.104C66.2908 45.994 73.6168 52.66 83.7808 52.66ZM74.6068 31.144C75.3988 25.798 78.6328 22.564 83.4508 22.564C88.4008 22.564 91.4368 25.204 91.8328 31.144H74.6068ZM122.462 52.66C127.544 52.66 131.966 49.624 133.814 46.192V52H141.8V1.51H133.814V22.762C131.9 19.33 128.402 16.756 122.792 16.756C113.816 16.756 107.282 23.752 107.282 34.774V35.302C107.282 46.522 113.816 52.66 122.462 52.66ZM124.442 46.324C119.294 46.324 115.466 42.694 115.466 35.104V34.576C115.466 27.118 118.898 23.026 124.772 23.026C130.58 23.026 134.078 26.788 134.078 34.378V34.906C134.078 42.628 129.986 46.324 124.442 46.324ZM154.592 52H163.37V34.048H169.97C180.068 34.048 187.262 29.626 187.262 19.66V19.396C187.262 9.496 180.332 4.81 169.772 4.81H154.592V52ZM163.37 27.712V11.608H169.772C175.382 11.608 178.682 13.786 178.682 19.396V19.66C178.682 24.874 175.58 27.712 169.772 27.712H163.37ZM196.988 52H204.974V1.51H196.988V52ZM226.39 52.66C231.67 52.66 234.706 50.746 236.95 47.776V52H244.804V29.362C244.804 19.924 238.732 16.756 231.01 16.756C223.288 16.756 216.886 20.122 216.226 28.174H223.948C224.344 24.742 226.39 22.762 230.548 22.762C235.234 22.762 236.818 25.072 236.818 29.692V31.474H232.528C222.628 31.474 214.84 34.378 214.84 42.43C214.84 49.624 220.054 52.66 226.39 52.66ZM228.304 46.918C224.344 46.918 222.76 45.004 222.76 42.1C222.76 37.876 226.654 36.49 232.726 36.49H236.818V39.922C236.818 44.344 233.188 46.918 228.304 46.918ZM256.598 52H264.584V31.672C264.584 26.194 268.214 23.422 272.702 23.422C277.454 23.422 279.566 25.798 279.566 31.012V52H287.552V30.286C287.552 20.782 282.668 16.756 275.738 16.756C270.062 16.756 266.234 19.594 264.584 22.96V17.482H256.598V52Z" fill="white"/>
</svg>
