<svg width="77" height="77" viewBox="0 0 77 77" fill="none" xmlns="http://www.w3.org/2000/svg">
<path d="M76.6259 3.48294C76.6259 3.13462 76.6259 2.78637 76.2775 2.43804V2.08972C76.2775 1.74139 75.9292 1.39315 75.581 1.04482C75.2327 0.696492 74.8844 0.696491 74.5361 0.348246H74.1878C73.8394 0.348246 73.4912 0.348243 73.1429 -8.31247e-05C73.1429 0.348243 73.1429 0.348246 73.1429 0.348246C72.7945 0.348246 72.4463 0.348248 72.098 0.696575L2.43812 25.0775C1.0449 25.4259 0 26.4708 0 28.2122C0 29.6055 0.696571 30.9986 2.0898 31.6953L32.0435 44.9306L45.2789 74.8843C45.9754 76.2775 47.0203 76.9741 48.4135 76.9741C49.8068 76.9741 51.1999 75.9292 51.5482 74.536L75.9292 4.87616C76.6258 4.52784 76.6258 4.17959 76.6258 3.48294C76.6258 3.83127 76.6258 3.83127 76.6258 3.48294H76.6259ZM59.9075 12.1904L34.1334 37.9645L12.8871 28.5604L59.9075 12.1904ZM48.4136 64.087L39.0096 42.8407L64.7837 17.0666L48.4136 64.087V64.087Z" fill="#283530"/>
</svg>
