<?xml version="1.0" encoding="UTF-8"?> <svg xmlns="http://www.w3.org/2000/svg" width="40" height="40" viewBox="0 0 40 40" fill="none"><path d="M20.1105 13.75C20.1105 17.1285 17.4305 19.8333 14.166 19.8333V21.8333C18.5722 21.8333 22.1105 18.1955 22.1105 13.75H20.1105ZM14.166 19.8333C10.9016 19.8333 8.22157 17.1285 8.22157 13.75H6.22157C6.22157 18.1955 9.75984 21.8333 14.166 21.8333V19.8333ZM8.22157 13.75C8.22157 10.3715 10.9016 7.66667 14.166 7.66667V5.66667C9.75984 5.66667 6.22157 9.30446 6.22157 13.75H8.22157ZM14.166 7.66667C17.4305 7.66667 20.1105 10.3715 20.1105 13.75H22.1105C22.1105 9.30446 18.5722 5.66667 14.166 5.66667V7.66667ZM2.62634 35.2789C4.18798 29.9018 8.80169 26.0833 14.166 26.0833V24.0833C7.79918 24.0833 2.48255 28.603 0.705696 34.7211L2.62634 35.2789ZM33.629 19.5833C33.629 21.5529 32.0134 23.1667 29.9993 23.1667V25.1667C33.099 25.1667 35.629 22.6764 35.629 19.5833H33.629ZM29.9993 23.1667C27.9853 23.1667 26.3697 21.5529 26.3697 19.5833H24.3697C24.3697 22.6764 26.8997 25.1667 29.9993 25.1667V23.1667ZM26.3697 19.5833C26.3697 17.6138 27.9853 16 29.9993 16V14C26.8997 14 24.3697 16.4903 24.3697 19.5833H26.3697ZM29.9993 16C32.0134 16 33.629 17.6138 33.629 19.5833H35.629C35.629 16.4903 33.099 14 29.9993 14V16ZM29.9993 29.5833C33.4284 29.5833 36.3768 31.9519 37.3746 35.2867L39.2907 34.7133C38.0629 30.61 34.3911 27.5833 29.9993 27.5833V29.5833ZM25.1825 31.3611C26.5083 30.2446 28.1819 29.5833 29.9993 29.5833V27.5833C27.6837 27.5833 25.5595 28.4289 23.8942 29.8313L25.1825 31.3611ZM14.166 26.0833C18.0319 26.0833 21.4969 28.0592 23.7247 31.1775L25.3521 30.0149C22.7885 26.4266 18.7432 24.0833 14.166 24.0833V26.0833ZM23.7247 31.1775C24.5919 32.3913 25.2692 33.7759 25.7057 35.2789L27.6263 34.7211C27.1271 33.0021 26.3508 31.4129 25.3521 30.0149L23.7247 31.1775Z" fill="#27BAA0"></path></svg> 